<svg width="318" height="65" viewBox="0 0 318 65" fill="none" xmlns="http://www.w3.org/2000/svg">
<g clip-path="url(#clip0_1_279)">
<path d="M6.48463 60.4975H16.9801C17.3091 60.2439 17.5911 59.8634 17.5911 59.2926V44.0573H18.3273C19.2672 44.0573 19.7999 43.6451 20.0662 43.3122C20.6614 42.6304 20.6614 41.7585 20.6614 41.489V32.3256C20.6614 31.4536 20.2541 30.9146 19.9878 30.5658C19.3926 30.0268 18.5936 30.0268 18.3273 30.0268H17.6537V21.6719C17.7164 21.4024 17.7164 21.0695 17.7164 20.8634C17.7164 19.2463 18.7816 18.9768 19.4552 18.9768H21.7893C23.8571 18.9768 26.1285 18.9134 27.6637 18.9768C28.1963 18.9768 28.6036 19.1829 28.8699 19.4524C29.3399 19.9914 29.3399 20.8634 29.3399 21.2122H23.0738C22.5412 21.2122 22.0086 21.6878 22.0713 22.2268C22.0713 22.7658 22.5412 23.2414 23.0738 23.2414H29.4025V25.3975H26.2695C25.7369 25.3975 25.2043 25.8731 25.2669 26.4122C25.2669 26.9512 25.7369 27.4268 26.2695 27.4268H29.4025V29.5829H25.3296C24.797 29.5829 24.2644 30.0585 24.327 30.5975C24.327 31.1365 24.797 31.6122 25.3296 31.6122H29.4025V33.9743C28.9952 34.3865 28.6036 34.989 28.6036 36.067V41.7268H23.0738C22.5412 41.7268 22.0086 42.2024 22.0713 42.7414C22.0713 43.2804 22.5412 43.7561 23.0738 43.7561H28.6036V45.9122H26.2695C25.7369 45.9122 25.2043 46.3878 25.2669 46.9268C25.2669 47.4658 25.7369 47.9414 26.2695 47.9414H28.6036V50.0341H25.3296C24.797 50.0341 24.2644 50.5097 24.327 51.0487C24.327 51.5878 24.797 52.0634 25.3296 52.0634H29.1989C29.1989 52.0634 29.3399 52.2695 29.4025 52.3329V54.0926H23.0738C22.5412 54.0926 22.0086 54.5682 22.0713 55.1073C22.0713 55.6463 22.5412 56.1219 23.0738 56.1219H29.4025V58.278H26.2695C25.7369 58.278 25.2043 58.7536 25.2669 59.2926C25.2669 59.3561 25.2669 59.4353 25.3296 59.5622C25.3296 60.0853 25.6586 60.5451 26.2852 60.5609H51.6312C54.8582 60.5134 57.9442 58.6426 59.4637 55.7097C60.3253 54.0926 60.5289 52.3329 60.5289 50.5256V26.3329C60.5289 24.7792 60.5289 23.3048 59.9336 21.8146C59.1347 19.7853 57.8032 18.3109 56.0644 17.0902C54.7955 16.139 53.5266 15.2037 52.1951 14.2524C48.3885 11.4146 44.5349 8.59269 40.6657 5.75488C39.2715 4.74025 37.8616 3.6622 36.4674 2.64756C35.1359 1.63293 33.7417 0.760975 32.0656 0.428049C30.0604 0.0158537 27.9927 0.364634 26.1912 1.3C25.5176 1.63293 24.8597 2.10854 24.2644 2.58415C22.5256 3.8683 20.8024 5.15244 19.0009 6.42074V5.6122C18.86 3.85244 17.5284 2.50488 15.8053 2.31464C15.1317 2.25122 14.5365 2.31464 13.8785 2.31464H10.6829C9.9466 2.31464 9.14768 2.25122 8.48975 2.45732C6.95458 2.93293 5.95202 4.34391 5.88936 5.89756C5.8267 7.38781 5.88936 8.92561 5.88936 10.4159V15.6C5.88936 15.7427 5.95202 15.7427 5.8267 15.9329C5.73271 16.028 5.64393 16.1179 5.56039 16.2024C4.08788 17.217 2.63103 18.2951 1.62847 19.7061C0.422265 21.4658 0.0306396 23.4158 0.0306396 25.4292V51.7146C0.0306396 54.2036 0.970541 56.5658 2.69369 58.3256C3.79024 59.4353 5.10611 60.1487 6.51596 60.5451L6.48463 60.4975ZM18.2647 32.1987H18.4683V41.6951C18.4683 41.6951 18.4683 41.9012 18.4057 41.9646C18.4057 41.9646 18.343 42.028 18.1394 42.028H17.3404C17.3404 42.028 17.2778 41.8853 17.2778 41.6158V37.8426C17.3404 37.2402 17.1368 36.3524 16.4162 35.9561L11.8107 33.5304C11.8107 33.5304 11.4818 33.3243 11.4818 32.928V32.1829C12.3433 32.1195 15.8836 32.1195 18.2803 32.1829L18.2647 32.1987ZM15.539 27.0146H11.9361V26.2695C11.9361 25.8573 12.2024 25.7304 12.2024 25.7304L15.539 24.05V27.0146ZM30.734 51.35C30.5304 51.0804 30.4677 50.6048 30.4677 50.478V36.2573C30.4677 36.0512 30.4677 35.7183 30.6714 35.5756C30.8124 35.4329 31.1413 35.3695 31.2666 35.3695H31.4703C38.0026 35.3695 47.9342 35.3061 48.6078 35.3695C48.7488 35.3695 48.8741 35.3695 48.8741 35.4329C48.9368 35.639 49.0151 36.178 49.0151 37.1134C49.0151 37.9219 48.4825 38.3341 48.2789 38.4609L34.619 42.1707L34.4153 42.2341C33.4754 42.7097 33.2091 43.8512 33.2874 44.6597V50.4622C33.2874 51.0012 33.2248 51.6036 32.6922 51.6036H31.486C31.157 51.6036 30.8907 51.5402 30.7497 51.3341L30.734 51.35ZM31.2666 25.8731V20.8792C38.1279 22.3695 47.5269 24.4463 48.3415 24.7951C48.8741 25.0646 48.9368 25.7463 48.9368 25.7463V26.4914C48.9368 26.6341 48.8741 26.6975 48.8741 26.7609C48.6705 26.967 48.2005 27.0304 47.9342 27.0304H32.3945C31.7993 27.0304 31.2666 26.4914 31.2666 25.889V25.8731ZM2.27074 23.3048C2.67803 21.6878 3.5396 20.2768 4.80847 19.3256C5.48207 18.7865 6.14 18.3109 6.81359 17.8353C7.01724 17.6292 7.28354 17.5658 7.48719 17.2963C8.0198 16.7573 7.95714 15.6793 7.95714 15.5366V6.43659C7.95714 5.96098 7.89448 5.48537 8.16079 5.02561C8.56808 4.34391 9.22601 4.28049 9.8996 4.28049H14.9594C15.7583 4.28049 16.6199 4.55 16.8235 5.50122C16.9645 6.24634 16.8235 7.1183 16.8235 7.92683V8.19634C16.7608 8.40244 16.8235 8.67195 16.9645 8.94147C17.2308 9.41708 17.9044 9.62317 18.3587 9.35366C19.2986 8.60854 20.2855 7.94269 21.2254 7.19756C23.0895 6.0561 24.8283 4.43903 26.7551 3.28171C29.2145 1.79147 32.2222 2.20366 34.4936 3.82073C35.4335 4.50244 36.4204 5.23171 37.3603 5.91342C41.0886 8.60854 44.7542 11.3671 48.4982 14.0622C50.8949 15.822 53.2917 17.5024 55.6258 19.2463C57.4899 20.6573 58.4298 22.8134 58.4298 25.1122V42.7097C58.4925 45.817 58.4925 48.8451 58.4925 51.8731C58.4925 54.7109 56.832 57.2634 54.2942 58.3414C52.9627 58.8804 51.6938 58.8804 50.3623 58.8804H32.6295C32.3005 58.8804 31.6896 58.817 31.4233 58.1353C31.0943 57.0573 31.2197 54.2987 31.2823 53.617H32.6138C32.8801 53.617 33.0838 53.5536 33.2874 53.5536C33.6164 53.4902 34.0864 53.2841 34.4936 52.8719C35.0889 52.2695 35.4335 51.4609 35.3552 50.3829V44.1207L48.9525 40.4109L49.1561 40.3475C49.8924 40.0146 51.0829 38.9365 51.0829 37.1134C51.0829 35.4329 51.0829 33.467 48.7488 33.3402C47.8872 33.2768 33.4128 33.3402 31.5486 33.3402H31.345V29.0914H48.0752C48.4042 29.0914 49.6104 29.028 50.4093 28.2829C50.8793 27.8073 51.1456 27.2682 51.1456 26.5231V25.6512C51.0829 24.9061 50.6756 23.4951 49.2814 22.8926C48.2162 22.417 35.0106 19.5951 30.7497 18.6439C30.687 18.5012 30.5461 18.3109 30.4207 18.1682C29.7471 17.4231 28.8856 17.0268 27.7577 16.9475C26.1599 16.8841 23.8258 16.8841 21.758 16.9475H19.4239C18.0297 16.9475 15.6173 17.7561 15.6173 20.9268C15.6173 21.1963 15.5547 21.5292 15.5547 21.7353L11.3565 23.828C10.8238 24.0975 9.88394 24.9061 9.88394 26.2536C9.88394 27.3317 9.88394 28.9487 11.7481 29.0914H15.5547V30.1061H11.4191C9.55497 30.2487 9.55497 31.8658 9.55497 32.9439C9.55497 34.2914 10.4949 35.1 10.9492 35.3695L15.351 37.7317V41.6475C15.351 42.1231 15.4137 42.5195 15.5547 42.789V58.0878C15.5547 58.5634 15.1474 58.9597 14.6931 58.9597H11.1528C9.22601 58.9597 7.28354 59.0865 5.54473 58.0085C3.41428 56.7243 2.08276 54.4414 2.08276 51.8731V26.3329C2.08276 25.3182 2.0201 24.3036 2.2864 23.3048H2.27074Z" fill="#E9571C"/>
<path d="M96.6065 21.9742H83.7769V35.6242H79.751V4.70959H98.6743V8.03886H83.7769V18.645H96.6065V21.9742Z" fill="#EE5719"/>
<path d="M101.853 6.54977C101.853 5.91563 102.041 5.3766 102.433 4.9327C102.824 4.4888 103.388 4.26685 104.14 4.26685C104.892 4.26685 105.472 4.4888 105.863 4.9327C106.255 5.3766 106.459 5.91563 106.459 6.54977C106.459 7.18392 106.271 7.72294 105.863 8.13514C105.456 8.54733 104.892 8.76929 104.14 8.76929C103.388 8.76929 102.809 8.56319 102.433 8.13514C102.057 7.70709 101.853 7.18392 101.853 6.54977ZM106.051 35.6254H102.166V12.6534H106.051V35.6254Z" fill="#EE5719"/>
<path d="M118.804 21.0386L123.833 12.652H128.36L120.935 24.0191L128.595 35.6398H124.099L118.851 27.0313L113.604 35.6398H109.092L116.752 24.0191L109.327 12.652H113.823L118.804 21.0386Z" fill="#EE5719"/>
<path d="M144.633 12.6527L144.742 15.2051C146.403 13.2234 148.658 12.2246 151.478 12.2246C154.658 12.2246 156.819 13.4612 157.963 15.9184C158.715 14.8088 159.702 13.921 160.908 13.2392C162.114 12.5575 163.555 12.2246 165.2 12.2246C170.182 12.2246 172.719 14.888 172.798 20.2306V35.6245H168.913V20.4684C168.913 18.8197 168.537 17.5989 167.801 16.7904C167.064 15.9819 165.811 15.5697 164.072 15.5697C162.631 15.5697 161.441 15.9977 160.485 16.8697C159.53 17.7416 158.981 18.9148 158.825 20.3892V35.6404H154.924V20.5794C154.924 17.2343 153.311 15.5697 150.084 15.5697C147.531 15.5697 145.792 16.6636 144.852 18.8672V35.6404H140.967V12.6685H144.633V12.6527Z" fill="#061A48"/>
<path d="M185.006 29.8691L190.3 12.652H194.452L185.319 39.1752C183.909 42.9959 181.653 44.9142 178.583 44.9142L177.847 44.8508L176.405 44.5813V41.3947L177.455 41.474C178.771 41.474 179.789 41.2045 180.525 40.6654C181.262 40.1264 181.873 39.1435 182.342 37.7167L183.204 35.3862L175.105 12.6678H179.35L185.021 29.885L185.006 29.8691Z" fill="#061A48"/>
<path d="M225.623 24.3839C225.623 27.9034 224.824 30.7095 223.227 32.8497C221.629 34.9741 219.498 36.0522 216.804 36.0522C213.937 36.0522 211.713 35.0217 210.146 32.9766L209.958 35.6241H206.387V2.99731H210.272V15.1729C211.838 13.2071 214 12.2241 216.757 12.2241C219.514 12.2241 221.676 13.2863 223.258 15.3949C224.824 17.5034 225.623 20.3887 225.623 24.0668V24.3997V24.3839ZM221.738 23.94C221.738 21.2607 221.222 19.1997 220.203 17.7412C219.185 16.2826 217.713 15.5534 215.801 15.5534C213.248 15.5534 211.4 16.7583 210.287 19.168V29.1083C211.478 31.518 213.326 32.7229 215.848 32.7229C217.713 32.7229 219.154 31.9936 220.188 30.5351C221.221 29.0765 221.738 26.8887 221.738 23.9558V23.94Z" fill="#061A48"/>
<path d="M243.466 33.3572C241.962 35.1487 239.738 36.0523 236.808 36.0523C234.396 36.0523 232.547 35.3389 231.278 33.9121C230.01 32.4853 229.367 30.3767 229.352 27.5865V12.6365H233.237V27.4755C233.237 30.9633 234.631 32.7072 237.435 32.7072C240.396 32.7072 242.369 31.5816 243.356 29.3462V12.6365H247.241V35.6084H243.544L243.466 33.3414V33.3572Z" fill="#061A48"/>
<path d="M252.085 6.54977C252.085 5.91563 252.273 5.3766 252.664 4.9327C253.056 4.4888 253.62 4.26685 254.372 4.26685C255.124 4.26685 255.703 4.4888 256.095 4.9327C256.487 5.3766 256.69 5.91563 256.69 6.54977C256.69 7.18392 256.502 7.72294 256.095 8.13514C255.688 8.54733 255.124 8.76929 254.372 8.76929C253.62 8.76929 253.04 8.56319 252.664 8.13514C252.273 7.70709 252.085 7.18392 252.085 6.54977ZM256.283 35.6254H252.398V12.6534H256.283V35.6254Z" fill="#061A48"/>
<path d="M265.632 35.6241H261.747V2.99731H265.632V35.6241Z" fill="#061A48"/>
<path d="M269.827 23.94C269.827 20.4205 270.657 17.5826 272.302 15.4266C273.947 13.2705 276.109 12.2083 278.787 12.2083C281.466 12.2083 283.549 13.1278 285.1 14.9668V2.99731H288.985V35.6241H285.414L285.226 33.1668C283.675 35.0851 281.513 36.0522 278.74 36.0522C275.968 36.0522 273.963 34.9583 272.302 32.7863C270.642 30.5985 269.811 27.7607 269.811 24.2412V23.94H269.827ZM273.712 24.3839C273.712 26.9839 274.244 29.029 275.31 30.5034C276.375 31.9778 277.847 32.707 279.712 32.707C282.171 32.707 283.972 31.5814 285.1 29.3461V18.7875C283.941 16.6156 282.155 15.5376 279.743 15.5376C277.847 15.5376 276.359 16.2826 275.294 17.7729C274.229 19.2631 273.696 21.4668 273.696 24.3839H273.712Z" fill="#061A48"/>
<path d="M88.4145 59.0228C88.0386 59.5619 87.4746 59.9899 86.7384 60.2911C86.0021 60.5924 85.1719 60.735 84.232 60.7192C83.48 60.7192 82.8221 60.5289 82.2582 60.1802C81.6942 59.8472 81.2556 59.3558 80.9423 58.7216C80.629 58.0875 80.441 57.3741 80.394 56.5655C80.3627 55.9314 80.441 55.0753 80.629 53.9972C80.817 52.9192 81.1616 51.9838 81.6316 51.207C82.1015 50.4143 82.7125 49.8277 83.4174 49.3997C84.138 48.9875 84.9526 48.7814 85.8768 48.7972C86.942 48.8131 87.7879 49.146 88.4302 49.7643C89.0568 50.3826 89.4171 51.2546 89.5111 52.3802H88.0542C87.9916 51.6509 87.7723 51.0802 87.3963 50.6838C87.0203 50.2875 86.5034 50.0814 85.8298 50.0655C84.8429 50.0338 84.0127 50.3826 83.3547 51.1436C82.6968 51.9046 82.2582 52.9985 82.0389 54.457L81.8822 55.5667L81.8509 56.1692C81.8509 57.2155 82.0702 58.0241 82.4932 58.5948C82.9161 59.1655 83.5114 59.4509 84.279 59.4667C85.3912 59.4985 86.2684 59.2131 86.9107 58.6424L87.3806 56.0424H84.7959L85.0152 54.7899H89.0411L88.3832 59.0387L88.4145 59.0228Z" fill="#061A48"/>
<path d="M94.6832 51.7783C95.4038 51.7783 96.0147 51.9844 96.516 52.3649C97.0173 52.7454 97.3932 53.2686 97.6439 53.9503C97.8945 54.632 97.9728 55.3613 97.8945 56.1539V56.3283C97.7849 57.1686 97.5342 57.9295 97.1426 58.5954C96.751 59.2771 96.234 59.8003 95.6231 60.1808C94.9965 60.5613 94.3072 60.7356 93.571 60.7198C92.866 60.7198 92.2551 60.5137 91.7382 60.1332C91.2212 59.7527 90.8609 59.2295 90.6103 58.5795C90.3596 57.9295 90.297 57.2003 90.3596 56.4076C90.438 55.5198 90.6729 54.7112 91.0802 53.9978C91.4719 53.2844 91.9888 52.7295 92.6154 52.3491C93.242 51.9527 93.9313 51.7783 94.6832 51.7942V51.7783ZM91.7852 56.3917C91.7538 56.7247 91.7538 57.0734 91.7852 57.4381C91.8321 58.0722 92.0201 58.5637 92.3334 58.9283C92.6467 59.293 93.0697 59.4991 93.6023 59.5149C94.0722 59.5308 94.5109 59.4198 94.9025 59.1661C95.2941 58.9125 95.6388 58.532 95.9051 58.0247C96.1714 57.5173 96.3593 56.9466 96.4377 56.3283C96.4847 55.8369 96.4847 55.4247 96.469 55.0917C96.4063 54.4417 96.2184 53.9503 95.8894 53.5698C95.5604 53.1893 95.1375 52.9991 94.6205 52.9832C93.8843 52.9832 93.2577 53.2527 92.7407 53.8552C92.2238 54.4576 91.9105 55.2344 91.7852 56.2173V56.4076V56.3917Z" fill="#061A48"/>
<path d="M103.281 51.7783C104.001 51.7783 104.612 51.9844 105.113 52.3649C105.615 52.7454 105.991 53.2686 106.241 53.9503C106.492 54.632 106.57 55.3613 106.492 56.1539V56.3283C106.382 57.1686 106.132 57.9295 105.74 58.5954C105.348 59.2771 104.831 59.8003 104.22 60.1808C103.594 60.5613 102.905 60.7356 102.168 60.7198C101.463 60.7198 100.853 60.5137 100.336 60.1332C99.8186 59.7527 99.4583 59.2295 99.2077 58.5795C98.957 57.9295 98.8944 57.2003 98.957 56.4076C99.0354 55.5198 99.2703 54.7112 99.6776 53.9978C100.069 53.2844 100.586 52.7295 101.213 52.3491C101.839 51.9527 102.529 51.7783 103.281 51.7942V51.7783ZM100.383 56.3917C100.351 56.7247 100.351 57.0734 100.383 57.4381C100.43 58.0722 100.618 58.5637 100.931 58.9283C101.244 59.293 101.667 59.4991 102.2 59.5149C102.67 59.5308 103.108 59.4198 103.5 59.1661C103.892 58.9125 104.236 58.532 104.502 58.0247C104.769 57.5173 104.957 56.9466 105.035 56.3283C105.082 55.8369 105.082 55.4247 105.066 55.0917C105.004 54.4417 104.816 53.9503 104.487 53.5698C104.158 53.1893 103.735 52.9991 103.218 52.9832C102.482 52.9832 101.855 53.2527 101.338 53.8552C100.821 54.4576 100.508 55.2344 100.383 56.2173V56.4076V56.3917Z" fill="#061A48"/>
<path d="M107.539 56.2341C107.648 55.3621 107.883 54.5694 108.259 53.856C108.635 53.1426 109.09 52.6194 109.638 52.2707C110.186 51.9219 110.781 51.7475 111.439 51.7633C112.395 51.7792 113.115 52.128 113.632 52.8097L114.447 48.3073H115.872L113.773 60.5463H112.473L112.63 59.6268C111.956 60.3719 111.126 60.7365 110.139 60.7048C109.356 60.689 108.729 60.3719 108.259 59.7694C107.789 59.167 107.539 58.3585 107.507 57.3438C107.492 57.0268 107.507 56.6621 107.539 56.2182V56.2341ZM108.902 57.0585C108.902 57.8194 109.027 58.406 109.309 58.8182C109.591 59.2304 110.014 59.4524 110.546 59.4682C111.377 59.4999 112.097 59.0877 112.739 58.2158L113.413 54.2365C113.1 53.4438 112.52 53.0475 111.69 53.0316C111.126 53.0158 110.64 53.1902 110.202 53.539C109.779 53.9036 109.45 54.3951 109.231 55.0451C109.011 55.6951 108.886 56.3609 108.886 57.0585H108.902Z" fill="#061A48"/>
<path d="M123.535 51.7628C124.491 51.7787 125.227 52.1275 125.729 52.8092L125.995 51.9372H127.311L125.259 63.875H123.849L124.616 59.7689C123.927 60.4348 123.144 60.7518 122.235 60.7201C121.436 60.7201 120.794 60.4031 120.324 59.8006C119.854 59.1982 119.588 58.3896 119.557 57.375C119.525 56.7092 119.604 56.0275 119.791 55.2982C119.979 54.5689 120.246 53.9348 120.606 53.3799C120.966 52.8409 121.405 52.4287 121.906 52.1592C122.408 51.8896 122.956 51.7628 123.535 51.7787V51.7628ZM121.013 56.3921L120.966 57.0579C120.951 57.8348 121.092 58.4214 121.374 58.8494C121.671 59.2775 122.079 59.4994 122.627 59.4994C123.426 59.5153 124.146 59.1348 124.757 58.3421L125.494 54.1092C125.149 53.364 124.585 52.9836 123.786 52.9677C123.065 52.9677 122.455 53.2372 121.969 53.8079C121.483 54.3787 121.154 55.2348 120.982 56.3921H121.013Z" fill="#061A48"/>
<path d="M133.137 59.7046C132.463 60.4021 131.617 60.7351 130.599 60.7192C129.784 60.7034 129.189 60.4021 128.798 59.8314C128.406 59.2607 128.265 58.4838 128.359 57.5009L129.267 51.9363H130.693L129.769 57.5326C129.737 57.7704 129.737 57.9924 129.753 58.2143C129.784 58.5948 129.894 58.896 130.098 59.118C130.301 59.3399 130.568 59.4509 130.928 59.4668C131.946 59.4985 132.729 59.0863 133.293 58.2143L134.359 51.9363H135.784L134.312 60.5607H132.964L133.152 59.7046H133.137Z" fill="#061A48"/>
<path d="M141.234 60.5476C141.203 60.389 141.171 60.2463 141.171 60.0878L141.203 59.628C140.419 60.3573 139.589 60.722 138.712 60.6902C137.96 60.6902 137.349 60.4366 136.879 59.9768C136.409 59.5012 136.19 58.9146 136.237 58.2171C136.284 57.2976 136.691 56.5841 137.427 56.0768C138.164 55.5695 139.135 55.3 140.341 55.3H141.829L141.923 54.6183C141.97 54.111 141.876 53.6988 141.626 53.3976C141.375 53.0963 140.999 52.9378 140.498 52.9378C140.012 52.9378 139.573 53.0488 139.198 53.3024C138.822 53.5561 138.587 53.889 138.508 54.3012H137.083C137.13 53.8098 137.318 53.3658 137.662 52.9695C138.007 52.5732 138.446 52.2719 138.978 52.0658C139.511 51.8439 140.075 51.7488 140.639 51.7646C141.532 51.7805 142.221 52.0658 142.706 52.5732C143.192 53.0963 143.411 53.7939 143.333 54.65L142.644 58.9146L142.597 59.5329C142.597 59.8183 142.612 60.1195 142.691 60.4049V60.5317H141.234V60.5476ZM138.994 59.4378C139.448 59.4378 139.887 59.3427 140.294 59.1049C140.701 58.8671 141.046 58.55 141.344 58.1378L141.657 56.3622H140.576C139.683 56.3622 138.994 56.5049 138.508 56.7902C138.023 57.0756 137.756 57.4878 137.694 58.011C137.647 58.4073 137.741 58.7561 137.976 59.0256C138.211 59.2951 138.555 59.4378 138.994 59.4378Z" fill="#061A48"/>
<path d="M145.748 60.5463H144.339L146.438 48.3073H147.863L145.764 60.5463H145.748Z" fill="#061A48"/>
<path d="M149.224 60.5475H147.814L149.287 51.9231H150.697L149.224 60.5475ZM150.399 48.7841C150.634 48.7841 150.838 48.8475 150.994 49.006C151.151 49.1645 151.229 49.3706 151.229 49.6243C151.229 49.878 151.151 50.0841 150.994 50.2426C150.838 50.4011 150.634 50.4804 150.399 50.4963C150.148 50.4963 149.945 50.4328 149.788 50.2743C149.631 50.1158 149.553 49.9255 149.553 49.6719C149.553 49.4182 149.631 49.2121 149.788 49.0536C149.945 48.895 150.133 48.7999 150.383 48.7841H150.399Z" fill="#061A48"/>
<path d="M154.911 49.8464L154.551 51.9391H156.101L155.898 53.0806H154.363L153.47 58.4391C153.47 58.5818 153.454 58.7086 153.47 58.8196C153.501 59.2318 153.736 59.4379 154.143 59.4379C154.316 59.4379 154.551 59.4062 154.833 59.3586L154.723 60.5635C154.378 60.6586 154.034 60.7062 153.689 60.7062C153.125 60.7062 152.702 60.4842 152.42 60.072C152.138 59.6598 152.029 59.105 152.091 58.4074L152.953 53.0647H151.449L151.653 51.9232H153.156L153.517 49.8306H154.927L154.911 49.8464Z" fill="#061A48"/>
<path d="M158.984 58.3729L162.008 51.9363H163.574L158.514 61.9875C157.81 63.3826 156.917 64.0802 155.805 64.0643C155.617 64.0643 155.319 64.0168 154.943 63.9216L155.068 62.7326L155.444 62.7643C155.899 62.7802 156.29 62.6851 156.619 62.4631C156.948 62.2412 157.23 61.8765 157.496 61.3692L158.013 60.3863L156.541 51.9521H158.029L158.984 58.3887V58.3729Z" fill="#061A48"/>
<path d="M174.197 58.5155L176.907 51.9363H178.379L174.494 60.5607H173.335L172.458 54.0448L169.388 60.5607H168.228L167.304 51.9363H168.667L169.184 58.357L172.207 51.9363H173.351L174.181 58.5155H174.197Z" fill="#061A48"/>
<path d="M182.7 51.7783C183.42 51.7783 184.031 51.9844 184.532 52.3649C185.034 52.7454 185.425 53.2686 185.66 53.9503C185.911 54.6161 185.989 55.3613 185.911 56.1539V56.3283C185.801 57.1686 185.551 57.9295 185.159 58.5954C184.767 59.2771 184.25 59.8003 183.64 60.1808C183.013 60.5613 182.324 60.7356 181.587 60.7198C180.882 60.7198 180.272 60.5137 179.755 60.1332C179.238 59.7527 178.862 59.2295 178.627 58.5795C178.392 57.9137 178.298 57.2003 178.376 56.4076C178.454 55.5198 178.689 54.7112 179.097 53.9978C179.488 53.2844 180.005 52.7295 180.632 52.3491C181.258 51.9686 181.948 51.7783 182.7 51.7942V51.7783ZM179.802 56.3917C179.77 56.7247 179.77 57.0734 179.802 57.4381C179.849 58.0722 180.037 58.5637 180.35 58.9283C180.663 59.293 181.086 59.4991 181.619 59.5149C182.089 59.5308 182.527 59.4198 182.919 59.1661C183.311 58.9125 183.655 58.532 183.921 58.0247C184.188 57.5173 184.376 56.9466 184.454 56.3283C184.501 55.8369 184.501 55.4247 184.47 55.0917C184.407 54.4417 184.219 53.9503 183.89 53.5698C183.561 53.1893 183.138 52.9991 182.621 52.9832C181.885 52.9832 181.258 53.2527 180.741 53.8552C180.225 54.4576 179.911 55.2344 179.786 56.2173V56.4076L179.802 56.3917Z" fill="#061A48"/>
<path d="M191.865 53.2535L191.192 53.1901C190.283 53.1901 189.562 53.6023 189.03 54.4426L187.98 60.5621H186.555L188.027 51.9377H189.406L189.187 52.9365C189.782 52.1279 190.502 51.7474 191.317 51.7633C191.489 51.7633 191.709 51.8109 191.991 51.8901L191.834 53.2535H191.865Z" fill="#061A48"/>
<path d="M194.592 56.5825L193.48 57.5971L192.979 60.5618H191.553L193.653 48.3228H195.078L193.825 55.6313L194.702 54.7435L197.725 51.9374H199.574L195.658 55.6154L198.352 60.5618H196.786L194.592 56.5825Z" fill="#061A48"/>
<path d="M207.891 60.5472C207.859 60.3887 207.828 60.246 207.828 60.0875L207.859 59.6277C207.076 60.357 206.246 60.7216 205.369 60.6899C204.617 60.6899 204.006 60.4363 203.536 59.9765C203.066 59.5009 202.846 58.9143 202.893 58.2167C202.94 57.2972 203.348 56.5838 204.084 56.0765C204.82 55.5692 205.791 55.2997 206.998 55.2997H208.486L208.58 54.618C208.627 54.1107 208.533 53.6985 208.282 53.3972C208.032 53.096 207.656 52.9375 207.154 52.9375C206.669 52.9375 206.23 53.0485 205.854 53.3021C205.478 53.5558 205.243 53.8887 205.165 54.3009H203.739C203.786 53.8094 203.974 53.3655 204.319 52.9692C204.664 52.5729 205.102 52.2716 205.635 52.0655C206.167 51.8594 206.731 51.7485 207.295 51.7643C208.188 51.7802 208.877 52.0655 209.363 52.5729C209.864 53.096 210.068 53.7936 209.99 54.6497L209.3 58.9143L209.253 59.5326C209.253 59.818 209.269 60.1192 209.347 60.4046V60.5314H207.891V60.5472ZM205.65 59.4375C206.105 59.4375 206.543 59.3424 206.951 59.1046C207.358 58.8668 207.703 58.5497 208 58.1375L208.314 56.3619H207.233C206.34 56.3619 205.65 56.5046 205.165 56.7899C204.679 57.0753 204.413 57.4875 204.35 58.0107C204.303 58.407 204.397 58.7558 204.632 59.0253C204.867 59.2948 205.212 59.4375 205.65 59.4375Z" fill="#061A48"/>
<path d="M214.628 49.8464L214.268 51.9391H215.819L215.615 53.0806H214.08L213.187 58.4391C213.187 58.5818 213.171 58.7086 213.187 58.8196C213.218 59.2318 213.453 59.4379 213.861 59.4379C214.033 59.4379 214.268 59.4062 214.55 59.3586L214.44 60.5635C214.096 60.6586 213.751 60.7062 213.406 60.7062C212.842 60.7062 212.419 60.4842 212.137 60.072C211.855 59.6598 211.746 59.105 211.808 58.4074L212.67 53.0647H211.166L211.37 51.9232H212.874L213.234 49.8306H214.644L214.628 49.8464Z" fill="#061A48"/>
<path d="M224.466 58.2161C224.544 57.6137 224.215 57.2015 223.494 56.9637L222.022 56.5198C220.769 56.0917 220.173 55.3625 220.205 54.3478C220.236 53.5868 220.581 52.9686 221.239 52.4771C221.881 51.9856 222.649 51.7478 223.526 51.7637C224.387 51.7637 225.092 52.0332 225.625 52.5247C226.158 53.0161 226.424 53.6661 226.408 54.4588H224.998C224.998 54.0149 224.873 53.6661 224.591 53.3966C224.309 53.1271 223.949 52.9844 223.479 52.9686C222.993 52.9686 222.555 53.0795 222.21 53.3332C221.881 53.571 221.693 53.8881 221.63 54.2686C221.568 54.76 221.865 55.1247 222.539 55.3625L223.259 55.5527C224.231 55.8064 224.936 56.1393 225.343 56.5515C225.75 56.9637 225.938 57.471 225.907 58.0734C225.876 58.6125 225.703 59.0722 225.39 59.4686C225.077 59.8649 224.654 60.1661 224.137 60.3881C223.62 60.5942 223.056 60.6893 222.461 60.6734C221.552 60.6734 220.816 60.4039 220.22 59.8808C219.625 59.3576 219.343 58.6917 219.375 57.8673H220.8C220.8 58.3588 220.957 58.7393 221.254 59.0405C221.552 59.3259 221.975 59.4844 222.508 59.4844C223.024 59.4844 223.479 59.3893 223.855 59.1515C224.231 58.9137 224.45 58.5966 224.497 58.2003L224.466 58.2161Z" fill="#061A48"/>
<path d="M230.606 60.7054C229.541 60.6895 228.711 60.2932 228.116 59.5163C227.52 58.7395 227.27 57.7566 227.364 56.5676L227.411 56.2188C227.505 55.3627 227.755 54.5858 228.163 53.8724C228.57 53.159 229.071 52.6358 229.666 52.2712C230.262 51.9066 230.904 51.748 231.593 51.7639C232.471 51.7797 233.16 52.081 233.661 52.6517C234.162 53.2224 234.429 53.9834 234.476 54.9663C234.476 55.3151 234.476 55.6639 234.444 55.9968L234.35 56.6627H228.789C228.695 57.4395 228.821 58.1054 229.165 58.6602C229.51 59.2151 230.027 59.4846 230.732 59.5163C231.578 59.5322 232.345 59.1517 233.066 58.3749L233.88 59.0724C233.52 59.5956 233.066 60.0078 232.502 60.2932C231.938 60.5944 231.311 60.7371 230.622 60.7212L230.606 60.7054ZM231.515 52.9688C230.92 52.9688 230.418 53.159 229.98 53.5712C229.541 53.9834 229.197 54.6176 228.93 55.4419H233.066L233.097 55.3151C233.175 54.6493 233.081 54.0944 232.784 53.6505C232.486 53.2066 232.063 52.9846 231.515 52.9688Z" fill="#061A48"/>
<path d="M237.715 51.9226L237.512 53.0165C238.279 52.1604 239.141 51.7482 240.128 51.7799C240.927 51.7958 241.522 52.0811 241.913 52.6201C242.289 53.1592 242.43 53.9201 242.336 54.9031L241.412 60.547H239.987L240.927 54.8872C240.958 54.6336 240.958 54.3799 240.927 54.1579C240.833 53.4128 240.41 53.0323 239.626 53.0165C238.765 53.0165 238.029 53.4604 237.371 54.3957L236.321 60.5311H234.896L236.368 51.9067H237.715V51.9226Z" fill="#061A48"/>
<path d="M248.465 58.2161C248.543 57.6137 248.214 57.2015 247.493 56.9637L246.021 56.5198C244.768 56.0917 244.172 55.3625 244.204 54.3478C244.235 53.5868 244.58 52.9686 245.238 52.4771C245.88 51.9856 246.647 51.7478 247.525 51.7637C248.386 51.7637 249.091 52.0332 249.624 52.5247C250.156 53.0161 250.423 53.6661 250.407 54.4588H248.997C248.997 54.0149 248.872 53.6661 248.59 53.3966C248.308 53.1271 247.948 52.9844 247.478 52.9686C246.992 52.9686 246.553 53.0795 246.209 53.3332C245.88 53.571 245.692 53.8881 245.629 54.2686C245.567 54.76 245.864 55.1247 246.538 55.3625L247.258 55.5527C248.23 55.8064 248.935 56.1393 249.342 56.5515C249.749 56.9637 249.937 57.471 249.906 58.0734C249.874 58.6125 249.702 59.0722 249.389 59.4686C249.076 59.8649 248.653 60.1661 248.136 60.3881C247.619 60.5942 247.055 60.6893 246.459 60.6734C245.551 60.6734 244.815 60.4039 244.219 59.8808C243.624 59.3576 243.342 58.6917 243.373 57.8673H244.799C244.799 58.3588 244.956 58.7393 245.253 59.0405C245.551 59.3259 245.974 59.4844 246.506 59.4844C247.023 59.4844 247.478 59.3893 247.854 59.1515C248.23 58.9137 248.449 58.5966 248.496 58.2003L248.465 58.2161Z" fill="#061A48"/>
<path d="M252.461 60.5475H251.051L252.523 51.9231H253.933L252.461 60.5475ZM253.636 48.7841C253.871 48.7841 254.074 48.8475 254.231 49.006C254.387 49.1645 254.466 49.3706 254.466 49.6243C254.466 49.878 254.387 50.0841 254.231 50.2426C254.074 50.4011 253.871 50.4804 253.636 50.4963C253.401 50.5121 253.181 50.4328 253.025 50.2743C252.868 50.1158 252.79 49.9255 252.79 49.6719C252.79 49.4182 252.868 49.2121 253.025 49.0536C253.181 48.895 253.369 48.7999 253.62 48.7841H253.636Z" fill="#061A48"/>
<path d="M262.126 56.2816C262.016 57.1694 261.781 57.9621 261.405 58.6597C261.029 59.3731 260.575 59.8963 260.058 60.2292C259.526 60.5621 258.946 60.7365 258.304 60.7207C257.27 60.7048 256.518 60.3085 256.017 59.5475L255.719 60.5463H254.403L256.502 48.3073H257.928L257.066 52.8731C257.755 52.1121 258.57 51.7316 259.557 51.7633C260.371 51.7792 261.014 52.0963 261.468 52.6829C261.922 53.2694 262.173 54.078 262.189 55.1243C262.189 55.4572 262.189 55.7902 262.142 56.1073V56.2816H262.126ZM260.779 55.4573C260.779 54.6804 260.669 54.0938 260.387 53.6816C260.121 53.2694 259.698 53.0475 259.134 53.0316C258.241 53.0158 257.505 53.4597 256.878 54.3792L256.236 58.1207C256.549 58.9926 257.144 59.4365 258.006 59.4682C258.554 59.4841 259.056 59.3255 259.463 58.9609C259.886 58.6121 260.199 58.1048 260.418 57.4707C260.638 56.8365 260.747 56.1548 260.763 55.4414L260.779 55.4573Z" fill="#061A48"/>
<path d="M264.38 60.5463H262.97L265.069 48.3073H266.495L264.396 60.5463H264.38Z" fill="#061A48"/>
<path d="M269.99 60.7054C268.925 60.6895 268.094 60.2932 267.499 59.5163C266.904 58.7395 266.653 57.7566 266.747 56.5676L266.794 56.2188C266.888 55.3627 267.139 54.5858 267.546 53.8724C267.953 53.159 268.455 52.6358 269.05 52.2712C269.645 51.9066 270.287 51.748 270.977 51.7639C271.854 51.7797 272.543 52.081 273.044 52.6517C273.546 53.2224 273.812 53.9834 273.859 54.9663C273.859 55.3151 273.859 55.6639 273.828 55.9968L273.749 56.6627H268.188C268.094 57.4395 268.22 58.1054 268.564 58.6602C268.909 59.2151 269.442 59.4846 270.131 59.5163C270.977 59.5322 271.744 59.1517 272.465 58.3749L273.279 59.0724C272.919 59.5956 272.465 60.0078 271.901 60.2932C271.337 60.5944 270.71 60.7371 270.021 60.7212L269.99 60.7054ZM270.898 52.9688C270.303 52.9688 269.802 53.159 269.363 53.5712C268.925 53.9834 268.58 54.6176 268.314 55.4419H272.449L272.481 55.3151C272.559 54.6493 272.465 54.0944 272.167 53.6505C271.87 53.2066 271.447 52.9846 270.898 52.9688Z" fill="#061A48"/>
<path d="M285.525 56.2801C285.415 57.1521 285.18 57.9447 284.82 58.6423C284.46 59.3399 284.005 59.863 283.473 60.2118C282.94 60.5606 282.345 60.7191 281.687 60.7033C280.7 60.6874 279.948 60.3387 279.416 59.6887L278.648 63.8423H277.222L279.275 51.9045H280.559L280.402 52.8557C281.107 52.0948 281.953 51.7143 282.924 51.746C283.739 51.7618 284.381 52.0789 284.836 52.6655C285.29 53.2521 285.541 54.0606 285.556 55.1069C285.556 55.4399 285.556 55.7728 285.525 56.0899L285.494 56.2643L285.525 56.2801ZM284.131 56.1216L284.178 55.4557C284.178 54.6789 284.037 54.0923 283.739 53.6801C283.441 53.2679 283.018 53.046 282.47 53.0301C281.64 53.0143 280.935 53.4106 280.34 54.2191L279.619 58.3411C279.932 59.1021 280.512 59.4984 281.342 59.5143C282.047 59.5301 282.658 59.2448 283.144 58.674C283.645 58.1033 283.974 57.2472 284.115 56.1216H284.131Z" fill="#061A48"/>
<path d="M291.558 53.2535L290.884 53.1901C289.975 53.1901 289.255 53.6023 288.722 54.4426L287.673 60.5621H286.247L287.72 51.9377H289.098L288.894 52.9365C289.49 52.1279 290.21 51.7474 291.025 51.7633C291.197 51.7633 291.417 51.8109 291.699 51.8901L291.542 53.2535H291.558Z" fill="#061A48"/>
<path d="M292.767 60.5475H291.357L292.829 51.9231H294.239L292.767 60.5475ZM293.942 48.7841C294.177 48.7841 294.38 48.8475 294.537 49.006C294.694 49.1645 294.772 49.3706 294.772 49.6243C294.772 49.878 294.694 50.0841 294.537 50.2426C294.38 50.4011 294.177 50.4804 293.942 50.4963C293.707 50.5121 293.487 50.4328 293.331 50.2743C293.174 50.1158 293.096 49.9255 293.096 49.6719C293.096 49.4182 293.174 49.2121 293.331 49.0536C293.487 48.895 293.675 48.7999 293.926 48.7841H293.942Z" fill="#061A48"/>
<path d="M298.293 59.5147C298.81 59.5147 299.265 59.372 299.672 59.0708C300.079 58.7537 300.345 58.3574 300.471 57.8501H301.818C301.74 58.3891 301.52 58.8805 301.176 59.3244C300.831 59.7684 300.392 60.1171 299.86 60.3708C299.327 60.6245 298.795 60.7354 298.231 60.7196C297.526 60.7196 296.93 60.5293 296.429 60.1647C295.944 59.8001 295.583 59.2927 295.348 58.6427C295.113 57.9927 295.035 57.2635 295.113 56.4549L295.16 56.0586C295.254 55.2342 295.505 54.4891 295.881 53.8391C296.257 53.1891 296.758 52.6818 297.353 52.3171C297.949 51.9525 298.638 51.7781 299.374 51.8098C300.267 51.8257 300.988 52.1269 301.52 52.7135C302.053 53.3001 302.319 54.0293 302.319 54.933H300.988C300.988 54.3623 300.815 53.9025 300.518 53.5537C300.22 53.2049 299.813 53.0147 299.312 52.9988C298.575 52.9988 297.949 53.2684 297.463 53.8391C296.977 54.4098 296.664 55.2184 296.539 56.2488V56.4549C296.476 56.7879 296.476 57.1525 296.508 57.5013C296.539 58.1196 296.711 58.611 297.024 58.9757C297.338 59.3403 297.761 59.5306 298.293 59.5464V59.5147Z" fill="#061A48"/>
<path d="M306.239 60.7054C305.173 60.6895 304.343 60.2932 303.748 59.5163C303.153 58.7395 302.902 57.7566 302.996 56.5676L303.027 56.2188C303.121 55.3627 303.372 54.5858 303.779 53.8724C304.187 53.159 304.688 52.6358 305.283 52.2712C305.878 51.9066 306.521 51.748 307.21 51.7639C308.087 51.7797 308.776 52.081 309.278 52.6517C309.779 53.2224 310.045 53.9834 310.092 54.9663C310.092 55.3151 310.092 55.6639 310.061 55.9968L309.983 56.6627H304.422C304.328 57.4395 304.453 58.1054 304.798 58.6602C305.142 59.2151 305.659 59.4846 306.364 59.5163C307.21 59.5322 307.978 59.1517 308.698 58.3749L309.513 59.0724C309.152 59.5956 308.698 60.0078 308.134 60.2932C307.57 60.5785 306.944 60.7371 306.254 60.7212L306.239 60.7054ZM307.147 52.9688C306.552 52.9688 306.051 53.159 305.612 53.5712C305.173 53.9834 304.829 54.6176 304.563 55.4419H308.698L308.729 55.3151C308.808 54.6493 308.714 54.0944 308.416 53.6505C308.119 53.2066 307.696 52.9846 307.147 52.9688Z" fill="#061A48"/>
<path d="M315.776 58.2161C315.854 57.6137 315.525 57.2015 314.804 56.9637L313.332 56.5198C312.079 56.0917 311.483 55.3625 311.515 54.3478C311.546 53.5868 311.891 52.9686 312.549 52.4771C313.191 51.9856 313.958 51.7478 314.836 51.7637C315.697 51.7637 316.402 52.0332 316.935 52.5247C317.467 53.0161 317.734 53.6661 317.718 54.4588H316.308C316.308 54.0149 316.183 53.6661 315.901 53.3966C315.619 53.1271 315.259 52.9844 314.789 52.9686C314.287 52.9686 313.864 53.0795 313.52 53.3332C313.191 53.571 313.003 53.8881 312.94 54.2686C312.878 54.76 313.175 55.1247 313.849 55.3625L314.569 55.5527C315.541 55.8064 316.23 56.1393 316.653 56.5515C317.06 56.9637 317.248 57.471 317.217 58.0734C317.185 58.6125 317.013 59.0722 316.7 59.4686C316.387 59.8649 315.964 60.1661 315.447 60.3881C314.93 60.5942 314.366 60.6893 313.77 60.6734C312.862 60.6734 312.126 60.4039 311.53 59.8808C310.935 59.3576 310.653 58.6917 310.684 57.8673H312.11C312.11 58.3588 312.267 58.7393 312.564 59.0405C312.862 59.3259 313.285 59.4844 313.817 59.4844C314.334 59.4844 314.789 59.3893 315.165 59.1515C315.541 58.9137 315.76 58.5966 315.807 58.2003L315.776 58.2161Z" fill="#061A48"/>
</g>
<defs>
<clipPath id="clip0_1_279">
<rect width="318" height="65" fill="white"/>
</clipPath>
</defs>
</svg>
