<svg width="22" height="25" viewBox="0 0 22 25" fill="none" xmlns="http://www.w3.org/2000/svg">
<path d="M11 12.5C14.31 12.5 17 9.81 17 6.5C17 3.19 14.31 0.5 11 0.5C7.69 0.5 5 3.19 5 6.5C5 9.81 7.69 12.5 11 12.5ZM11 2.5C13.21 2.5 15 4.29 15 6.5C15 8.71 13.21 10.5 11 10.5C8.79 10.5 7 8.71 7 6.5C7 4.29 8.79 2.5 11 2.5Z" fill="#061A48"/>
<path d="M17 14.5H5C2.24 14.5 0 16.74 0 19.5V23.5C0 24.05 0.45 24.5 1 24.5C1.55 24.5 2 24.05 2 23.5V19.5C2 17.85 3.35 16.5 5 16.5H17C18.65 16.5 20 17.85 20 19.5V23.5C20 24.05 20.45 24.5 21 24.5C21.55 24.5 22 24.05 22 23.5V19.5C22 16.74 19.76 14.5 17 14.5Z" fill="#061A48"/>
</svg>
